<svg xmlns="http://www.w3.org/2000/svg" xml:space="preserve" width="1500" height="1500" data-id="lg_gv5N27b421p34f3keW" data-version="1" viewBox="0 0 1500 1500"><path fill="#cacaca" stroke="transparent" d="M0 0h1500v1500H0z"/><g data-padding="20"><g transform="translate(-557.052 -570.477)scale(1.69848)"><rect width="405.204" height="100.57" x="170.593" y="327.28" fill="none" rx="0" ry="0" transform="translate(477.9 400.6)"/><path fill="#818181" d="M650.725 764.285v-7.12h6.67v-6.89q0-3.79.82-6.77.83-2.98 2.61-5.05t4.56-3.18 6.69-1.11q2.01 0 3.68.33t3.07.87q1.4.53 2.58 1.24 1.18.72 2.11 1.47l-3.78 5.25q-.94-.66-2.58-1.35-1.65-.69-3.65-.69-3.83 0-5.85 2.16-2.03 2.15-2.03 7.27v6.45h12.91l-.89 7.12h-11.79v41.83h-8.46v-41.83Zm55.58 42.6q-4.94 0-9.02-1.94-4.07-1.93-7-5.34-2.94-3.4-4.57-8.05-1.62-4.65-1.62-10.04 0-5.38 1.56-9.99 1.56-4.6 4.45-7.96t7.01-5.25q4.11-1.89 9.19-1.89 4.94 0 9.03 1.89t7.03 5.25 4.58 7.96q1.65 4.61 1.65 9.99 0 5.39-1.58 10.04t-4.47 8.05q-2.89 3.41-7.03 5.34-4.14 1.94-9.21 1.94m13.84-24.16q0-3.61-.78-7.08t-2.47-6.21q-1.69-2.73-4.36-4.42-2.67-1.7-6.41-1.7-3.56 0-6.14 1.47t-4.23 3.92-2.43 5.56q-.77 3.12-.77 6.41 0 3.6.77 7.07.78 3.48 2.45 6.19t4.32 4.38 6.38 1.67q3.52 0 6.1-1.47 2.58-1.46 4.27-3.89t2.49-5.54q.81-3.12.81-6.36m39.56 24.16q-4.94 0-9.02-1.94-4.07-1.93-7-5.34-2.94-3.4-4.57-8.05-1.62-4.65-1.62-10.04 0-5.38 1.56-9.99 1.56-4.6 4.45-7.96t7.01-5.25q4.11-1.89 9.19-1.89 4.94 0 9.03 1.89t7.03 5.25 4.58 7.96q1.65 4.61 1.65 9.99 0 5.39-1.58 10.04t-4.47 8.05q-2.89 3.41-7.03 5.34-4.14 1.94-9.21 1.94m13.84-24.16q0-3.61-.78-7.08t-2.47-6.21q-1.69-2.73-4.36-4.42-2.67-1.7-6.41-1.7-3.56 0-6.14 1.47t-4.23 3.92-2.43 5.56q-.78 3.12-.78 6.41 0 3.6.78 7.07.78 3.48 2.45 6.19t4.32 4.38 6.38 1.67q3.52 0 6.1-1.47 2.58-1.46 4.27-3.89t2.49-5.54q.81-3.12.81-6.36m48.95-18.43h-6.86q-4.09 0-7.07 1.54-2.99 1.53-4.94 4.16-1.96 2.62-2.9 6.18-.93 3.56-.93 7.61 0 3.96.93 6.95.94 2.98 2.43 4.98t3.4 3q1.92 1.01 3.92 1.01 2.09 0 3.89-.72 1.81-.71 3.32-1.78 1.51-1.06 2.71-2.33t2.1-2.38Zm9.34 41.83h-9.34v-7.21l-4.23 5.03q-.8.54-1.74 1.07-.93.53-2.09.94-1.16.4-2.56.66-1.4.27-3.14.27-3.64 0-6.8-1.8t-5.5-5.01q-2.34-3.2-3.69-7.63-1.36-4.43-1.36-9.72 0-5.34 1.71-9.99 1.72-4.65 4.88-8.13 3.16-3.47 7.63-5.45t9.99-1.98h6.9v-23.14l8.45.89v63.19Zm16.91-57.4-1.34-9.35q1.38-.13 3.3-.22 1.91-.09 3.94-.15 2.02-.07 4-.09 1.98-.03 3.45-.03 7.08 0 13.11 1.74 6.02 1.73 10.43 5.52 4.41 3.78 6.9 9.7t2.49 14.24q0 6.5-1.25 11.68-1.24 5.18-3.44 9.19-2.21 4-5.3 6.87t-6.81 4.72q-3.71 1.85-7.9 2.72-4.18.86-8.63.86h-12.95Zm8.23-2.67 1.11 8.9v44.05h.89q6.46 0 10.95-1.33 4.5-1.34 7.46-3.54 2.95-2.2 4.62-5.07t2.5-5.94q.82-3.07 1-6.1t.18-5.61q0-5.65-.98-10.39t-3.61-8.14q-2.62-3.41-7.32-5.3-4.69-1.89-12.08-1.89-.71 0-1.51.05-.8.04-1.52.13-.8.09-1.69.18m80.77 52.06.89 8.01h-9.34v-7.21l-4.19 4.99q-.75.58-1.73 1.11t-1.98.96q-1 .42-2.01.67-1 .24-1.84.24-3.34 0-6.39-1.05-3.05-1.04-5.34-3.07-2.29-2.02-3.65-5.02-1.35-3.01-1.35-6.92 0-4.14 1.66-7.19 1.67-3.05 4.28-5.07 2.6-2.03 5.8-3.03 3.21-1 6.28-1 2.53 0 4.47.27 1.94.26 3.27.62 1.56.4 2.72.89v-1.56q0-2.62-.32-4.72-.31-2.09-1.26-3.53-.96-1.45-2.76-2.21-1.81-.75-4.79-.75-2.4 0-4.63.33-2.22.33-3.96.73-2.04.49-3.78 1.03l-3.2-5.96q1.96-.89 4.45-1.61 2.13-.62 5.07-1.13t6.5-.51q5.11 0 8.45 1.38t5.25 3.87q1.92 2.49 2.67 5.98.76 3.5.76 7.77Zm-8.45-4.18v-11.53q-1.25-.17-2.68-.35-1.2-.13-2.75-.27-1.56-.13-3.25-.13-2.49 0-4.56.49t-3.59 1.58q-1.51 1.09-2.35 2.82-.85 1.74-.85 4.23 0 2 .67 3.65.66 1.65 1.82 2.85t2.74 1.84q1.58.65 3.4.65.85 0 1.81-.24.95-.25 1.91-.65t1.91-.93q.96-.54 1.8-1.07 2.01-1.29 3.97-2.94m32.47-35.65v47.83h-8.45v-46.94Zm-8.72-10.02v-8.9h8.99v8.9Zm35.43-14.23v55.36q0 2.94.33 4.92.34 1.98.98 3.2.65 1.23 1.6 1.74.96.51 2.21.51.98 0 1.78-.11t1.38-.29q.66-.18 1.2-.4l3.07 5.38q-.36.36-1.14.78-.77.42-1.84.83-1.07.4-2.43.66-1.35.27-2.91.27-4.01 0-6.5-1.47t-3.87-4q-1.38-2.54-1.85-5.9-.46-3.36-.46-7.19v-44.5l-.89-8.9Zm38.26 66.22 2.31-10.32 11.97-32.76 8.01-.75-18.42 50.46q-1.38 3.74-3 7.43-1.63 3.69-3.67 6.61-2.05 2.91-4.52 4.74-2.47 1.82-5.5 1.82-2.27 0-4.45-.91t-4-2.51l3.25-4.76q.75.53 1.73.97.98.45 2.05.45 1.47 0 2.85-1.14 1.38-1.13 2.65-2.91 1.26-1.78 2.35-4.01 1.09-2.22 1.98-4.45l-18.55-51.04 8.45-.75 12.2 33.51Z"/><path fill="#cacaca" stroke="#818181" stroke-width="4.44" d="M557.685 715.176a62.269 62.269 0 1 0 0 124.538 62.269 62.269 0 1 0 0-124.538Z"/><path fill="#818181" d="M582.672 799.011h-38.148a1.61 1.61 0 0 1-1.632-1.632v-28.254c0-.918.714-1.632 1.632-1.632h38.148c.918 0 1.632.714 1.632 1.632v28.356c0 .816-.714 1.53-1.632 1.53m-36.516-3.264h34.884v-24.99h-34.884Z"/><path fill="#818181" d="M557.988 787.077h-8.262a1.61 1.61 0 0 1-1.632-1.632v-9.69c0-.918.714-1.632 1.632-1.632h8.262c.918 0 1.632.714 1.632 1.632v9.69c0 .918-.714 1.632-1.632 1.632m-6.63-3.264h4.998v-6.426h-4.998Zm25.806-6.426H562.68a1.61 1.61 0 0 1-1.632-1.632c0-.918.714-1.632 1.632-1.632h14.484c.918 0 1.632.714 1.632 1.632s-.714 1.632-1.632 1.632m0 4.692H562.68a1.61 1.61 0 0 1-1.632-1.632c0-.918.714-1.632 1.632-1.632h14.484c.918 0 1.632.714 1.632 1.632s-.714 1.632-1.632 1.632m0 4.896H562.68a1.61 1.61 0 0 1-1.632-1.632c0-.918.714-1.632 1.632-1.632h14.484c.918 0 1.632.714 1.632 1.632s-.714 1.632-1.632 1.632m0 5.508h-27.336a1.61 1.61 0 0 1-1.632-1.632c0-.918.714-1.632 1.632-1.632h27.438c.918 0 1.632.714 1.632 1.632s-.816 1.632-1.734 1.632"/><path fill="#818181" d="M545.034 799.011h-4.386c-.816 0-1.428-.51-1.632-1.326l-6.63-31.518a1.67 1.67 0 0 1 .204-1.224c.204-.408.612-.612 1.122-.714l37.638-6.63c.408-.102.918 0 1.224.306.408.204.612.612.714 1.02l1.734 9.792c.204.918-.408 1.734-1.326 1.938s-1.734-.408-1.938-1.326l-1.428-8.16-34.272 6.018 6.018 28.56h3.06c.918 0 1.632.714 1.632 1.632s-.816 1.632-1.734 1.632"/></g><path fill="transparent" stroke="transparent" stroke-width="1.766" d="M329.765 639.607H1250v220.786H329.765z"/></g></svg>