<svg width="150" height="50" viewBox="0 0 150 50" fill="none" xmlns="http://www.w3.org/2000/svg">
<path d="M0 0H150V50H0V0Z" fill="#03424C"/>
<path d="M11 20.7111V18.4254H13.1413V16.2135C13.1413 15.4024 13.229 14.6779 13.4045 14.0401C13.5821 13.4024 13.8614 12.862 14.2424 12.419C14.6233 11.9759 15.1113 11.6357 15.7063 11.3981C16.3012 11.1605 17.0171 11.0417 17.8539 11.0417C18.2841 11.0417 18.6779 11.0771 19.0353 11.1477C19.3927 11.2183 19.7212 11.3114 20.0209 11.427C20.3205 11.5404 20.5966 11.6731 20.8491 11.825C21.1017 11.9791 21.3275 12.1364 21.5265 12.297L20.313 13.9824C20.1118 13.8411 19.8358 13.6966 19.4848 13.549C19.1316 13.4013 18.741 13.3274 18.313 13.3274C17.4933 13.3274 16.8673 13.5586 16.435 14.0209C16.0005 14.481 15.7833 15.259 15.7833 16.3548V18.4254H19.9278L19.6421 20.7111H15.8571V34.1396H13.1413V20.7111H11ZM28.8427 34.3868C27.7854 34.3868 26.8202 34.1792 25.947 33.7641C25.076 33.351 24.3269 32.7796 23.6998 32.0498C23.0706 31.3221 22.5816 30.4607 22.2328 29.4655C21.886 28.4703 21.7127 27.3959 21.7127 26.2424C21.7127 25.091 21.8796 24.022 22.2135 23.0353C22.5474 22.0508 23.0235 21.199 23.642 20.4799C24.2606 19.7608 25.0107 19.199 25.8925 18.7946C26.7721 18.3901 27.7555 18.1878 28.8427 18.1878C29.8999 18.1878 30.8662 18.3901 31.7416 18.7946C32.6169 19.199 33.3692 19.7608 33.9984 20.4799C34.6276 21.199 35.1177 22.0508 35.4687 23.0353C35.8218 24.022 35.9984 25.091 35.9984 26.2424C35.9984 27.3959 35.8293 28.4703 35.4912 29.4655C35.153 30.4607 34.6747 31.3221 34.0562 32.0498C33.4377 32.7796 32.6854 33.351 31.7994 33.7641C30.9133 34.1792 29.9278 34.3868 28.8427 34.3868ZM33.2857 26.6308C33.2857 25.8582 33.2022 25.1006 33.0353 24.358C32.8684 23.6153 32.6041 22.9508 32.2424 22.3644C31.8807 21.7801 31.4141 21.3071 30.8427 20.9454C30.2713 20.5816 29.5853 20.3997 28.7849 20.3997C28.023 20.3997 27.366 20.557 26.8138 20.8716C26.2616 21.1862 25.809 21.6057 25.4559 22.13C25.1027 22.6544 24.8427 23.2493 24.6758 23.9149C24.511 24.5827 24.4286 25.2686 24.4286 25.9727C24.4286 26.7432 24.511 27.4997 24.6758 28.2424C24.8427 28.9872 25.1049 29.6496 25.4623 30.2295C25.8197 30.8095 26.282 31.2782 26.8491 31.6356C27.4163 31.9931 28.099 32.1718 28.8973 32.1718C29.6506 32.1718 30.3034 32.0145 30.8555 31.6999C31.4077 31.3874 31.8646 30.9711 32.2263 30.451C32.588 29.931 32.8545 29.3382 33.0257 28.6726C33.199 28.0048 33.2857 27.3242 33.2857 26.6308ZM45.9855 34.3868C44.9283 34.3868 43.9631 34.1792 43.0899 33.7641C42.2188 33.351 41.4698 32.7796 40.8427 32.0498C40.2135 31.3221 39.7244 30.4607 39.3756 29.4655C39.0289 28.4703 38.8555 27.3959 38.8555 26.2424C38.8555 25.091 39.0225 24.022 39.3563 23.0353C39.6902 22.0508 40.1664 21.199 40.7849 20.4799C41.4034 19.7608 42.1536 19.199 43.0353 18.7946C43.9149 18.3901 44.8983 18.1878 45.9855 18.1878C47.0428 18.1878 48.0091 18.3901 48.8844 18.7946C49.7597 19.199 50.512 19.7608 51.1412 20.4799C51.7705 21.199 52.2605 22.0508 52.6115 23.0353C52.9647 24.022 53.1412 25.091 53.1412 26.2424C53.1412 27.3959 52.9722 28.4703 52.634 29.4655C52.2959 30.4607 51.8175 31.3221 51.199 32.0498C50.5805 32.7796 49.8282 33.351 48.9422 33.7641C48.0562 34.1792 47.0706 34.3868 45.9855 34.3868ZM50.4286 26.6308C50.4286 25.8582 50.3451 25.1006 50.1782 24.358C50.0112 23.6153 49.7469 22.9508 49.3852 22.3644C49.0235 21.7801 48.557 21.3071 47.9855 20.9454C47.4141 20.5816 46.7282 20.3997 45.9278 20.3997C45.1659 20.3997 44.5088 20.557 43.9567 20.8716C43.4045 21.1862 42.9518 21.6057 42.5987 22.13C42.2456 22.6544 41.9855 23.2493 41.8186 23.9149C41.6517 24.5827 41.5682 25.2686 41.5682 25.9727C41.5682 26.7432 41.6517 27.4997 41.8186 28.2424C41.9855 28.9872 42.2477 29.6496 42.6051 30.2295C42.9625 30.8095 43.4248 31.2782 43.992 31.6356C44.5591 31.9931 45.2418 32.1718 46.0401 32.1718C46.7935 32.1718 47.4462 32.0145 47.9984 31.6999C48.5505 31.3874 49.0075 30.9711 49.3692 30.451C49.7309 29.931 49.9973 29.3382 50.1685 28.6726C50.3419 28.0048 50.4286 27.3242 50.4286 26.6308ZM66.1428 20.7143H63.9406C63.0653 20.7143 62.3087 20.8791 61.6709 21.2087C61.031 21.5361 60.5024 21.9813 60.0851 22.5441C59.6656 23.1049 59.3552 23.7662 59.1541 24.5281C58.955 25.29 58.8555 26.1043 58.8555 26.9711C58.8555 27.8186 58.955 28.5623 59.1541 29.2022C59.3552 29.84 59.6153 30.3729 59.9342 30.801C60.2531 31.229 60.6169 31.55 61.0257 31.7641C61.4366 31.9802 61.856 32.0883 62.2841 32.0883C62.7314 32.0883 63.1476 32.0112 63.5329 31.8572C63.9203 31.7052 64.2755 31.5147 64.5987 31.2857C64.9219 31.0589 65.2119 30.8095 65.4687 30.5377C65.7255 30.2659 65.9502 30.0112 66.1428 29.7737V20.7143ZM69.1412 34.1429H66.1428V31.8282L64.7849 33.443C64.6137 33.5586 64.4275 33.6731 64.2263 33.7865C64.0273 33.9 63.8036 34.0005 63.5554 34.0883C63.3071 34.1739 63.0332 34.2445 62.7335 34.3002C62.4339 34.3579 62.0979 34.3868 61.7255 34.3868C60.9465 34.3868 60.2188 34.1942 59.5425 33.809C58.8662 33.4238 58.2777 32.8877 57.7769 32.2007C57.2761 31.5158 56.8812 30.6993 56.5923 29.7512C56.3012 28.8031 56.1557 27.763 56.1557 26.6308C56.1557 25.488 56.3387 24.4189 56.7046 23.4238C57.0727 22.4286 57.5949 21.5586 58.2712 20.8138C58.9475 20.0712 59.764 19.488 60.7207 19.0642C61.6773 18.6405 62.7464 18.4286 63.9277 18.4286H66.1428V11L68.8555 11.2857V31.5714L69.1412 34.1429ZM74.5698 15.7159L74.1396 12.7143C74.435 12.6865 74.7881 12.6629 75.199 12.6437C75.6078 12.6244 76.0294 12.6084 76.4639 12.5955C76.8962 12.5805 77.3242 12.5709 77.748 12.5666C78.1717 12.5602 78.5409 12.557 78.8555 12.557C80.3707 12.557 81.7736 12.7432 83.0642 13.1156C84.3526 13.4858 85.4687 14.0765 86.4125 14.8877C87.3563 15.6966 88.0947 16.7346 88.6276 18.0016C89.1605 19.2686 89.4269 20.7924 89.4269 22.573C89.4269 23.9642 89.2932 25.214 89.0257 26.3226C88.7603 27.4313 88.3922 28.4147 87.9213 29.2729C87.4483 30.129 86.8812 30.8641 86.2199 31.4783C85.5585 32.0926 84.8298 32.5976 84.0337 32.9936C83.2397 33.3895 82.3943 33.6806 81.4976 33.8668C80.603 34.0508 79.6795 34.1429 78.7271 34.1429H74.5698V15.7159ZM77.2118 14.8588L77.5682 17.7159V31.8572H77.8539C79.2365 31.8572 80.4082 31.7148 81.3691 31.4302C82.3322 31.1434 83.1305 30.7646 83.764 30.2937C84.3954 29.8229 84.8897 29.2804 85.2472 28.6661C85.6046 28.0519 85.8721 27.4163 86.0497 26.7592C86.2252 26.1022 86.3322 25.4495 86.3708 24.801C86.4093 24.1525 86.4285 23.5522 86.4285 23C86.4285 21.7908 86.3237 20.679 86.1139 19.6645C85.9042 18.6501 85.5179 17.779 84.955 17.0514C84.3943 16.3216 83.611 15.7544 82.6051 15.3499C81.6014 14.9454 80.3087 14.7432 78.7271 14.7432C78.5751 14.7432 78.4136 14.7485 78.2423 14.7592C78.0711 14.7678 77.9085 14.7817 77.7544 14.801C77.5832 14.8202 77.4023 14.8395 77.2118 14.8588ZM103.141 31.5714L103.427 34.1429H100.429V31.8282L99.0834 33.4302C98.9229 33.5543 98.7378 33.6731 98.528 33.7865C98.3183 33.9 98.1064 34.0027 97.8924 34.0947C97.6784 34.1846 97.4633 34.2563 97.2472 34.3098C97.0331 34.3612 96.8362 34.3868 96.6565 34.3868C95.9416 34.3868 95.2579 34.2745 94.6051 34.0498C93.9523 33.8272 93.3809 33.4987 92.8908 33.0642C92.4007 32.6319 92.0101 32.0947 91.7191 31.4527C91.4301 30.8085 91.2857 30.068 91.2857 29.2312C91.2857 28.3451 91.4633 27.5757 91.8186 26.923C92.176 26.2702 92.634 25.7277 93.1926 25.2954C93.749 24.8609 94.3697 24.5366 95.0545 24.3226C95.7415 24.1086 96.4136 24.0016 97.0706 24.0016C97.6121 24.0016 98.0904 24.0305 98.5056 24.0883C98.9208 24.1439 99.2707 24.2103 99.5553 24.2873C99.8892 24.3729 100.18 24.4682 100.429 24.573V24.0722C100.429 23.5115 100.394 23.0064 100.326 22.557C100.259 22.1097 100.125 21.732 99.9213 21.4238C99.7159 21.1134 99.4205 20.8769 99.0353 20.7143C98.6479 20.5538 98.1353 20.4735 97.4975 20.4735C96.9839 20.4735 96.4884 20.5088 96.0112 20.5795C95.5361 20.6501 95.1123 20.7282 94.7399 20.8138C94.3033 20.9187 93.8988 21.0289 93.5264 21.1445L92.4991 19.2311C92.9186 19.0407 93.3948 18.8684 93.9277 18.7143C94.3836 18.5816 94.9261 18.4607 95.5553 18.3515C96.1845 18.2424 96.8801 18.1878 97.642 18.1878C98.7356 18.1878 99.6399 18.3355 100.355 18.6308C101.07 18.9262 101.631 19.3403 102.04 19.8732C102.451 20.4061 102.737 21.046 102.897 21.793C103.06 22.542 103.141 23.3735 103.141 24.2873V31.5714ZM100.429 30.2295V26.5281C100.161 26.4917 99.8742 26.4543 99.5682 26.4157C99.3113 26.3879 99.0171 26.359 98.6853 26.3291C98.3515 26.3012 98.0037 26.2873 97.642 26.2873C97.1091 26.2873 96.6211 26.3398 96.1781 26.4446C95.7351 26.5495 95.351 26.7186 95.0256 26.9518C94.7025 27.1851 94.451 27.4869 94.2712 27.8571C94.0893 28.2295 93.9984 28.6822 93.9984 29.2151C93.9984 29.6431 94.07 30.0337 94.2134 30.3868C94.3547 30.74 94.5495 31.045 94.7977 31.3018C95.046 31.5586 95.3392 31.7555 95.6773 31.8925C96.0155 32.0316 96.3793 32.1011 96.7688 32.1011C96.9507 32.1011 97.1444 32.0755 97.3499 32.0241C97.5532 31.9706 97.7576 31.901 97.963 31.8154C98.1685 31.7298 98.3729 31.6303 98.5762 31.5169C98.7817 31.4013 98.9743 31.2868 99.1541 31.1734C99.5842 30.8973 100.009 30.5827 100.429 30.2295ZM110.852 18.7849V34.1396H108.14V19.0706L110.852 18.7849ZM108.053 15.5682V12.7111H110.939V15.5682H108.053ZM119.427 11V28.7721C119.427 29.4013 119.462 29.9278 119.533 30.3515C119.606 30.7753 119.71 31.1177 119.847 31.3788C119.987 31.6421 120.158 31.8283 120.361 31.9374C120.567 32.0466 120.803 32.1011 121.071 32.1011C121.28 32.1011 121.471 32.0894 121.642 32.0658C121.813 32.0423 121.961 32.0112 122.085 31.9727C122.226 31.9342 122.355 31.8914 122.47 31.8443L123.456 33.5714C123.379 33.6485 123.257 33.7319 123.09 33.8218C122.925 33.9117 122.728 34.0005 122.499 34.0883C122.27 34.1739 122.01 34.2445 121.719 34.3002C121.43 34.3579 121.119 34.3868 120.785 34.3868C119.927 34.3868 119.231 34.2295 118.698 33.9149C118.165 33.6003 117.751 33.1723 117.456 32.6308C117.16 32.0872 116.962 31.4559 116.862 30.7368C116.763 30.0177 116.714 29.2483 116.714 28.4286V14.1429L116.429 11.2857L119.427 11ZM131.709 32.2584L132.451 28.9454L136.294 18.4286L138.865 18.1878L132.952 34.3868C132.656 35.1873 132.335 35.9823 131.989 36.7721C131.64 37.5618 131.247 38.2691 130.811 38.8941C130.372 39.5169 129.888 40.0241 129.359 40.4157C128.831 40.8052 128.242 41 127.594 41C127.108 41 126.632 40.9026 126.165 40.7079C125.699 40.5131 125.271 40.2445 124.881 39.9021L125.925 38.374C126.085 38.4874 126.27 38.5912 126.48 38.6854C126.69 38.7817 126.909 38.8299 127.138 38.8299C127.453 38.8299 127.758 38.7079 128.053 38.4639C128.348 38.2221 128.632 37.9106 128.904 37.5297C129.173 37.1487 129.425 36.7196 129.658 36.2424C129.891 35.7673 130.103 35.2911 130.294 34.8138L124.339 18.4286L127.051 18.1878L130.968 28.9454L131.709 32.2584Z" fill="#F56607"/>
</svg>
